<?xml version="1.0" encoding="utf-8"?>
<!-- Generator: Adobe Illustrator 19.1.0, SVG Export Plug-In . SVG Version: 6.00 Build 0)  -->
<svg version="1.1" id="Layer_1" xmlns="http://www.w3.org/2000/svg" xmlns:xlink="http://www.w3.org/1999/xlink" x="0px" y="0px"
	 viewBox="0 0 530.031 363.042" style="enable-background:new 0 0 530.031 363.042;" xml:space="preserve">
<style type="text/css">
	.st0{fill:#56B949;}
	.st1{fill:#47AD48;}
	.st2{fill:#67C9D0;}
	.st3{fill:#CDCCCC;}
	.st4{fill:#4A763F;}
	.st5{fill:#57AAA8;}
	.st6{fill:#989898;}
	.st7{fill:#F3F3F3;}
	.st8{fill:#F37272;}
	.st9{fill:#F6D2AE;}
	.st10{fill:#E93433;}
	.st11{fill:#FFE7D2;}
	.st12{fill:#2AAAE2;}
</style>
<g id="XMLID_1_">
	<g>
		<path class="st0" d="M321.773,323.875c0.094,0.06,0.103,0.146,0.017,0.197l-10.555,6.095c-0.086,0.043-0.231,0.034-0.325-0.017
			l-69.718-40.252c-0.094-0.051-0.103-0.137-0.017-0.188l10.555-6.095c0.086-0.043,0.231-0.043,0.325,0.017L321.773,323.875z"/>
		<path class="st1" d="M303.907,334.396l-5.787,3.339c-0.128,0.077-0.351,0.068-0.505-0.017l-53.967-31.161
			c-0.154-0.086-0.171-0.223-0.043-0.291l5.787-3.339c0.128-0.077,0.351-0.068,0.505,0.017l53.975,31.161
			C304.018,334.191,304.035,334.319,303.907,334.396z"/>
		<path class="st2" d="M293.874,340.183l-12.422,7.174c-0.368,0.214-1.002,0.188-1.43-0.06l-52.58-30.356l12.43-7.174
			c0.36-0.214,1.002-0.188,1.421,0.06L293.874,340.183z"/>
		<path class="st1" d="M277.985,349.044c0.154,0.086,0.171,0.223,0.043,0.291l-5.787,3.339c-0.128,0.077-0.351,0.068-0.505-0.017
			l-53.967-31.161c-0.154-0.086-0.171-0.214-0.043-0.291l5.787-3.339c0.128-0.077,0.351-0.069,0.505,0.017L277.985,349.044z"/>
		<path class="st0" d="M265.341,356.663l-10.564,6.095c-0.077,0.051-0.223,0.043-0.325-0.017l-69.71-40.244
			c-0.103-0.06-0.111-0.146-0.026-0.188l10.555-6.095c0.086-0.051,0.231-0.043,0.325,0.009l69.718,40.252
			C265.41,356.526,265.418,356.611,265.341,356.663z"/>
		<path class="st3" d="M247.158,299.802l-35.142,20.289c-0.086,0.051-0.231,0.043-0.325-0.009l-40.535-23.405
			c-0.103-0.06-0.111-0.137-0.026-0.188l35.142-20.289c0.077-0.051,0.231-0.043,0.325,0.017l40.535,23.396
			C247.227,299.674,247.235,299.76,247.158,299.802z M236.646,302.516c1.969-1.139,1.978-2.979,0.026-4.109
			c-1.96-1.121-5.136-1.121-7.105,0.017c-1.969,1.139-1.978,2.971-0.026,4.101C231.501,303.655,234.677,303.646,236.646,302.516z
			 M215.989,314.441c1.96-1.139,1.978-2.971,0.017-4.101c-1.952-1.13-5.136-1.121-7.105,0.009c-1.969,1.139-1.978,2.979-0.017,4.101
			C210.835,315.58,214.02,315.58,215.989,314.441z M208.789,286.431c1.969-1.139,1.978-2.971,0.026-4.101
			c-1.96-1.13-5.136-1.121-7.105,0.009c-1.969,1.139-1.978,2.979-0.026,4.101C203.644,287.569,206.82,287.569,208.789,286.431z
			 M188.132,298.356c1.96-1.13,1.978-2.971,0.017-4.101c-1.952-1.13-5.136-1.121-7.105,0.017c-1.96,1.13-1.978,2.971-0.017,4.101
			C182.979,299.503,186.163,299.494,188.132,298.356z"/>
		<path class="st4" d="M236.671,298.407c1.952,1.13,1.943,2.971-0.026,4.109c-1.969,1.13-5.145,1.139-7.105,0.009
			c-1.952-1.13-1.943-2.962,0.026-4.101C231.535,297.286,234.711,297.286,236.671,298.407z"/>
		<path class="st0" d="M234.403,272.52l-12.447,7.191c-0.086,0.043-0.231,0.043-0.325-0.017l-81.917-47.298
			c-0.103-0.051-0.111-0.137-0.026-0.188l12.447-7.182c0.086-0.051,0.231-0.043,0.325,0.009l81.917,47.298
			C234.48,272.391,234.488,272.477,234.403,272.52z"/>
		<path class="st5" d="M239.873,308.423c0.36-0.214,1.002-0.188,1.421,0.06l52.982,30.587c0.419,0.248,0.471,0.616,0.103,0.822
			l-0.505,0.291l-52.58-30.356c-0.419-0.248-1.062-0.274-1.421-0.06l-12.43,7.174l-0.402-0.231c-0.419-0.24-0.462-0.608-0.103-0.822
			L239.873,308.423z"/>
		<path class="st4" d="M216.006,310.341c1.96,1.13,1.943,2.962-0.017,4.101c-1.969,1.139-5.154,1.139-7.105,0.009
			c-1.96-1.121-1.952-2.962,0.017-4.101C210.869,309.219,214.054,309.211,216.006,310.341z"/>
		<path class="st4" d="M208.815,282.33c1.952,1.13,1.943,2.962-0.026,4.101c-1.969,1.139-5.145,1.139-7.105,0.009
			c-1.952-1.121-1.943-2.962,0.026-4.101C203.678,281.209,206.854,281.2,208.815,282.33z"/>
		<path class="st1" d="M200.999,274.711c0.146,0.086,0.163,0.214,0.034,0.291l-5.787,3.339c-0.128,0.077-0.351,0.068-0.497-0.017
			l-67.201-38.797c-0.146-0.086-0.163-0.214-0.034-0.291l5.787-3.339c0.128-0.077,0.351-0.068,0.505,0.017L200.999,274.711z"/>
		<path class="st5" d="M191.736,280.07c0.026,0.06,0.017,0.111,0,0.171V280.07z"/>
		<path class="st2" d="M191.736,281.414c0.026,0.06,0.017,0.111,0,0.171V281.414z"/>
		<path class="st2" d="M191,280.789l-12.422,7.174c-0.368,0.214-1.002,0.188-1.43-0.06l-65.806-37.984l12.43-7.182
			c0.368-0.205,1.01-0.18,1.43,0.06L191,280.789z"/>
		<path class="st4" d="M188.149,294.255c1.96,1.13,1.943,2.971-0.017,4.101c-1.969,1.139-5.154,1.147-7.105,0.017
			c-1.96-1.13-1.943-2.971,0.017-4.101C183.013,293.134,186.197,293.125,188.149,294.255z"/>
		<path class="st0" d="M177.003,305.658l-10.555,6.095c-0.086,0.051-0.231,0.043-0.334-0.009l-81.917-47.298
			c-0.094-0.051-0.103-0.137-0.017-0.188l10.555-6.095c0.086-0.051,0.231-0.043,0.325,0.017l81.917,47.289
			C177.072,305.53,177.089,305.615,177.003,305.658z"/>
		<path class="st1" d="M175.154,289.941l-5.787,3.347c-0.128,0.068-0.351,0.06-0.505-0.026l-67.193-38.797
			c-0.146-0.086-0.163-0.214-0.034-0.283l5.787-3.347c0.128-0.068,0.351-0.06,0.505,0.026l67.193,38.797
			C175.265,289.744,175.283,289.872,175.154,289.941z"/>
		<path class="st0" d="M140.971,218.579l-12.447,7.191c-0.086,0.043-0.231,0.043-0.325-0.017l-70.472-40.68
			c-0.094-0.06-0.103-0.146-0.017-0.188l12.447-7.191c0.086-0.051,0.231-0.043,0.325,0.017l70.472,40.68
			C141.048,218.45,141.057,218.527,140.971,218.579z"/>
		<path class="st5" d="M123.773,242.737l-12.43,7.182l-0.394-0.231c-0.034-0.026-0.077-0.043-0.103-0.077v-0.753l12.927-7.465
			c0.368-0.205,1.01-0.18,1.43,0.06l66.2,38.223c0.188,0.111,0.3,0.24,0.334,0.377c0.009,0,0.009,0.009,0,0.017v0.171
			c-0.026,0.094-0.103,0.188-0.231,0.257L191,280.789l-65.797-37.992C124.783,242.557,124.141,242.531,123.773,242.737z"/>
		<path class="st1" d="M122.138,229.451l-5.787,3.347c-0.128,0.068-0.351,0.06-0.497-0.026l-70.283-40.578
			c-0.146-0.086-0.163-0.214-0.034-0.291l5.787-3.339c0.128-0.068,0.351-0.06,0.497,0.026l70.283,40.569
			C122.249,229.254,122.266,229.382,122.138,229.451z"/>
		<path class="st2" d="M112.122,235.238l-12.439,7.182c-0.36,0.205-1.002,0.18-1.421-0.06l-68.888-39.773l12.422-7.174
			c0.368-0.214,1.01-0.188,1.43,0.06L112.122,235.238z"/>
		<path class="st2" d="M110.846,248.858v0.753C110.521,249.371,110.512,249.055,110.846,248.858z"/>
		<path class="st1" d="M96.225,244.107c0.146,0.086,0.163,0.214,0.034,0.291l-5.787,3.339c-0.128,0.077-0.351,0.06-0.497-0.026
			l-70.283-40.569c-0.146-0.086-0.163-0.223-0.034-0.291l5.787-3.339c0.128-0.077,0.351-0.068,0.497,0.017L96.225,244.107z"/>
		<path class="st0" d="M83.572,251.717l-12.447,7.191c-0.086,0.051-0.231,0.043-0.325-0.017L0.328,218.21
			c-0.094-0.06-0.103-0.137-0.026-0.188l12.456-7.191c0.077-0.043,0.231-0.043,0.325,0.017l70.463,40.68
			C83.649,251.589,83.657,251.674,83.572,251.717z"/>
		<path class="st5" d="M43.225,194.129l69.29,39.996c0.419,0.248,0.462,0.616,0.103,0.83l-0.497,0.283l-68.896-39.764
			c-0.419-0.248-1.062-0.274-1.43-0.06l-12.422,7.174l-0.402-0.231c-0.034-0.026-0.077-0.043-0.103-0.077v-0.745l12.927-7.465
			C42.164,193.855,42.806,193.881,43.225,194.129z"/>
		<path class="st2" d="M28.869,201.534v0.745C28.544,202.039,28.535,201.723,28.869,201.534z"/>
	</g>
	<g>
	</g>
</g>
<g id="XMLID_6_">
	<g>
		<polygon class="st0" points="357.641,108.414 337.905,117.443 298.742,94.834 292.319,98.553 211.459,51.868 235.576,37.936 		"/>
	</g>
	<g>
	</g>
</g>
<g id="XMLID_12_">
	<g>
		<polygon class="st6" points="529.726,131.094 529.726,131.253 497.328,149.955 494.393,148.262 526.924,129.474 		"/>
		<polygon class="st6" points="529.726,127.86 529.726,131.094 526.924,129.474 		"/>
		<polygon class="st6" points="505.48,154.828 505.48,158.055 502.685,156.441 		"/>
		<path class="st3" d="M505.48,154.828l-2.795,1.613l-8.292-4.787l2.934-1.7l8.153,4.707
			C505.56,154.709,505.56,154.782,505.48,154.828z"/>
		<polygon class="st3" points="497.328,149.955 494.393,151.655 494.393,148.262 		"/>
		<path class="st6" d="M494.393,148.262v3.393L407.88,201.6c-0.08,0.046-0.199,0.046-0.279,0l0.279-3.393L494.393,148.262z"/>
		<path class="st6" d="M444.614,75.146l-0.02,3.399l-1.175-0.677c-0.033-0.02-0.086-0.027-0.139-0.027v-0.053l-1.607-0.929v-0.013
			L444.614,75.146z"/>
		<path class="st7" d="M443.279,77.842c0.053,0,0.106,0.007,0.139,0.027l1.175,0.677v0.007l-1.315,0.757V77.842z"/>
		<path class="st7" d="M443.279,81.181v-1.872l1.315-0.757v-0.007l85.132,49.155c0.073,0.04,0.073,0.113,0,0.159l-2.802,1.613
			l-83.506-48.213c-0.033-0.02-0.086-0.033-0.139-0.033V81.181z"/>
		<path class="st7" d="M443.279,77.842v1.467l-1.607,0.929v-1.52l1.467-0.85C443.18,77.849,443.233,77.842,443.279,77.842z"/>
		<path class="st3" d="M443.279,77.789v0.053c-0.046,0-0.1,0.007-0.139,0.027l-1.467,0.85v-1.859L443.279,77.789z"/>
		<polygon class="st3" points="441.673,76.859 441.673,78.718 441.659,78.725 441.659,76.853 		"/>
		<polygon class="st7" points="441.659,80.245 441.659,78.725 441.673,78.718 441.673,80.239 443.279,79.309 443.279,81.181 		"/>
		<path class="st7" d="M443.14,81.261l-119.051,68.734l-2.788-1.607v-0.007v-0.166l119.038-68.734l1.321,0.763l1.62,0.936v0.046
			C443.233,81.228,443.18,81.241,443.14,81.261z"/>
		<polygon class="st7" points="441.659,78.725 441.659,80.245 440.338,79.482 		"/>
		<polygon class="st6" points="440.431,72.73 440.411,76.136 437.49,74.449 437.49,74.429 		"/>
		<polygon class="st6" points="437.49,74.449 440.411,76.136 437.49,77.822 		"/>
		<polygon class="st3" points="437.483,77.835 436.102,77.039 436.102,73.646 437.49,74.449 437.49,77.822 		"/>
		<polygon class="st6" points="436.102,73.646 436.102,77.039 432.942,75.213 		"/>
		<path class="st7" d="M436.102,73.646l-3.16,1.567L309.038,3.677c-0.08-0.046-0.199-0.046-0.279,0l0.279-3.393L436.102,73.646z"/>
		<path class="st7" d="M432.942,75.213l-23.11,11.479c-0.08,0.04-0.199,0.033-0.272-0.007l-20.355-11.751
			c-0.08-0.046-0.206-0.046-0.285,0l-2.941,1.7l-3.937-2.271l-8.478,4.893l3.937,2.271l-3.2,1.846c-0.08,0.046-0.206,0.046-0.279,0
			L272.364,24.683l36.395-21.006c0.08-0.046,0.199-0.046,0.279,0L432.942,75.213z"/>
		<path class="st6" d="M409.832,90.084c-0.08,0.04-0.199,0.033-0.272-0.007v-3.393c0.073,0.04,0.193,0.046,0.272,0.007l23.11-11.479
			l3.16,1.826L409.832,90.084z"/>
		<polygon class="st3" points="409.56,86.685 409.56,90.078 389.204,78.327 389.204,74.934 		"/>
		<path class="st3" d="M407.88,198.207l-0.279,3.393l-13.424-7.748c-0.06-0.04-0.153-0.046-0.226-0.02l0.226-3.373l13.424,7.748
			C407.681,198.254,407.8,198.254,407.88,198.207z"/>
		<path class="st7" d="M407.601,198.207l-13.424-7.748c-0.06-0.04-0.153-0.046-0.226-0.02c-16.598,4.807-37.271,3.246-51.047-4.707
			c-7.841-4.521-12.09-10.33-12.767-16.259c0.385-3.373,1.925-6.719,4.621-9.819c0.033-0.046,0.02-0.1-0.04-0.133l-1.706-0.983
			c0.511-0.77,1.095-1.534,1.746-2.277c0.033-0.046,0.02-0.1-0.04-0.133l-10.629-6.134L443.14,81.261
			c0.04-0.02,0.093-0.033,0.139-0.033c0.053,0,0.106,0.013,0.139,0.033l83.506,48.213l-32.531,18.788l-86.513,49.945
			C407.8,198.254,407.681,198.254,407.601,198.207z"/>
		<path class="st3" d="M393.951,190.44c0.073-0.027,0.166-0.02,0.226,0.02l-0.226,3.373c-16.598,4.807-37.271,3.246-51.047-4.707
			c-9.328-5.384-13.577-12.588-12.767-19.652c0.677,5.929,4.926,11.738,12.767,16.259
			C356.68,193.686,377.354,195.246,393.951,190.44z"/>
		<path class="st6" d="M388.919,74.934c0.08-0.046,0.206-0.046,0.285,0v3.393c-0.08-0.046-0.206-0.046-0.285,0l-2.941,1.693v-3.386
			L388.919,74.934z"/>
		<polygon class="st8" points="385.978,80.02 377.5,84.919 377.5,81.527 385.978,76.634 		"/>
		<polygon class="st8" points="385.978,76.634 377.5,81.527 373.563,79.256 382.041,74.363 		"/>
		<path class="st6" d="M381.749,229.656c-0.08,0.04-0.206,0.04-0.279,0v-3.393c0.073,0.04,0.199,0.04,0.279,0l120.936-69.823
			l2.795,1.613v0.166L381.749,229.656z"/>
		<path class="st3" d="M381.47,226.264v3.393l-18.231-10.529c-0.08-0.046-0.206-0.04-0.285,0v-3.393c0.08-0.046,0.206-0.046,0.285,0
			L381.47,226.264z"/>
		<path class="st6" d="M379.206,105.434c0.086,0.046,0.08,0.126-0.013,0.173l-10.742,5.019l-3.253-1.866l3.253-1.527l7.668-3.578
			L379.206,105.434z"/>
		<path class="st6" d="M379.206,102.2v3.233l-3.087-1.779l3.074-1.441C379.199,102.207,379.206,102.207,379.206,102.2z"/>
		<path class="st6" d="M374.3,86.765c-0.08,0.046-0.206,0.046-0.279,0v-3.393c0.073,0.046,0.199,0.046,0.279,0l3.2-1.846v3.393
			L374.3,86.765z"/>
		<polygon class="st3" points="374.021,83.372 374.021,86.765 269.43,26.383 272.364,24.683 		"/>
		<path class="st3" d="M368.451,107.233l-3.253,1.527l-84.136-48.312c-0.08-0.046-0.08-0.12,0-0.166l2.802-1.62L368.451,107.233z"/>
		<polygon class="st6" points="368.451,110.625 337.606,125.052 334.359,123.18 337.606,121.659 365.198,108.76 		"/>
		<polygon class="st6" points="362.954,215.734 362.954,219.127 360.099,217.381 		"/>
		<polygon class="st7" points="362.954,215.734 360.099,217.381 343.528,207.236 343.528,203.751 		"/>
		<path class="st7" d="M343.528,207.236l16.571,10.144l-16.292,9.408c-0.073,0.046-0.199,0.046-0.279,0l-17.003-9.819
			L343.528,207.236z"/>
		<path class="st6" d="M343.528,230.181v-3.393c0.08,0.046,0.206,0.046,0.279,0l16.292-9.408l2.855,1.746l-19.147,11.054
			C343.734,230.227,343.608,230.227,343.528,230.181z"/>
		<polygon class="st6" points="337.606,125.052 324.992,130.954 324.992,127.562 334.359,123.18 		"/>
		<path class="st3" d="M334.718,156.129c0.06,0.033,0.073,0.086,0.04,0.133c-0.651,0.744-1.235,1.507-1.746,2.277l-11.718-6.765
			c-0.073-0.046-0.073-0.12,0.007-0.166l2.788-1.613L334.718,156.129z"/>
		<path class="st7" d="M334.718,159.522c0.06,0.033,0.073,0.086,0.04,0.133c-2.695,3.1-4.236,6.446-4.621,9.819
			c-0.425-3.691,0.538-7.429,2.875-10.934L334.718,159.522z"/>
		<path class="st3" d="M326.525,216.969l-3.094,1.773v-3.393c0.073-0.046,0.199-0.046,0.279,0L326.525,216.969z"/>
		<polygon class="st6" points="324.992,127.562 324.992,130.954 308.587,138.622 308.587,135.23 		"/>
		<polygon class="st3" points="324.089,149.995 321.301,151.608 321.301,148.388 		"/>
		<path class="st7" d="M323.432,215.349l20.096-11.598v3.485l-17.003,9.733l-2.815-1.62
			C323.631,215.303,323.505,215.303,323.432,215.349z"/>
		<path class="st3" d="M323.432,218.742l3.094-1.773l17.003,9.819v3.393l-19.817-11.439
			C323.631,218.695,323.505,218.695,323.432,218.742z"/>
		<polygon class="st6" points="323.432,215.349 323.432,218.742 309.855,226.583 306.92,224.883 		"/>
		<path class="st9" d="M321.301,148.382v0.007v3.22c-0.08,0.046-0.08,0.119-0.007,0.166l11.718,6.765
			c-2.337,3.505-3.3,7.243-2.875,10.934c-0.81,7.064,3.439,14.267,12.767,19.652c13.776,7.954,34.45,9.514,51.047,4.707
			c0.073-0.027,0.166-0.02,0.226,0.02l13.424,7.748c0.08,0.046,0.199,0.046,0.279,0l86.513-49.945l8.292,4.787l-120.936,69.823
			c-0.08,0.04-0.206,0.04-0.279,0l-18.231-10.529c-0.08-0.046-0.206-0.046-0.285,0l-19.426-11.983l-20.096,11.598l-16.511,9.534
			h-0.007v0.007l-6.453,3.724l-4.481,2.583l-6.4,3.698l-17.202,9.932c-0.086,0.046-0.232,0.04-0.305-0.013l-19.871-16.1l9.925-5.729
			c0.073-0.04,0.073-0.113,0-0.159v-3.233c0.073-0.04,0.073-0.113,0-0.159l-33.042-19.074c-0.08-0.046-0.206-0.046-0.279,0
			l-6.778,3.91l-0.06-0.02c0-0.02-0.013-0.04-0.033-0.06l-14.805-12.7l-5.53-4.747v-0.007h-0.007l-4.096-3.519l-4.999-4.289
			l-16.286-13.975c-0.066-0.06-0.212-0.066-0.305-0.02l-11.804,6.818L99.61,134.513l29.65-17.122c0.073-0.046,0.073-0.119,0-0.159
			v-3.233c0.073-0.046,0.073-0.119,0-0.159l-10.41-6.008l1.042-0.604l5.49-3.167v-0.007l2.51-1.441l29.212,16.863
			c0.073,0.046,0.199,0.046,0.279,0l32.299-18.649c0.08-0.046,0.08-0.12,0-0.159v-3.233c0.08-0.046,0.08-0.119,0-0.159
			l-18.191-10.503l11.917-6.805l20.535,11.857l11.651,6.254c-0.073,0.046-0.073,0.119,0,0.166l80.133,46.261
			c0.073,0.04,0.186,0.046,0.266,0.007l12.594-5.889l16.405-7.668l12.614-5.902l30.845-14.427l10.742-5.019
			c0.093-0.046,0.1-0.126,0.013-0.173V102.2c0.08-0.046,0.08-0.113,0-0.159l-88.033-50.828c-0.073-0.04-0.199-0.04-0.279,0
			l-9.832,5.676l-9.069-5.112l6.998-4.043c0.08-0.04,0.08-0.113,0-0.159v-3.233c0.08-0.04,0.08-0.113,0-0.159l-3.857-2.231
			l-9.892-5.71l-6.446-3.724l10.636-6.134l104.591,60.382c0.073,0.046,0.199,0.046,0.279,0l3.2-1.846l8.478-4.9l2.941-1.693
			c0.08-0.046,0.206-0.046,0.285,0l20.355,11.751c0.073,0.04,0.193,0.046,0.272,0.007l26.271-13.046l1.381,0.797l2.855,1.646
			l-119.038,68.734c-0.08,0.046-0.08,0.12-0.007,0.166H321.301z M309.888,184.02c0.06-0.04,0.066-0.1,0-0.146l-30.347-20.886
			c-0.066-0.046-0.193-0.053-0.279-0.013l-20.282,9.846c-0.08,0.04-0.093,0.113-0.02,0.159l0.02,0.013v3.22
			c-0.08,0.04-0.093,0.113-0.02,0.159l30.34,20.886c0.073,0.046,0.199,0.053,0.279,0.013l20.282-9.839
			c0.086-0.04,0.1-0.113,0.027-0.166l-0.027-0.02L309.888,184.02z M271.428,158.499c0.106-0.053,0.126-0.146,0.027-0.206
			l-0.027-0.02v-4.216c0.106-0.053,0.126-0.146,0.027-0.212l-43.114-29.212c-0.093-0.06-0.259-0.066-0.372-0.013l-29.238,14.413
			c-0.106,0.053-0.126,0.146-0.027,0.219l0.027,0.02v4.202c-0.106,0.053-0.126,0.146-0.027,0.219l43.114,29.212
			c0.093,0.06,0.259,0.066,0.372,0.007l4.946-2.437l20.674-10.191L271.428,158.499z M219.285,118.367
			c0.08-0.04,0.093-0.113,0.02-0.159l-18.715-12.488c-0.066-0.046-0.193-0.046-0.279-0.007l-28.461,14.241
			c-0.08,0.046-0.093,0.113-0.02,0.166l0.02,0.013v3.213c-0.08,0.046-0.093,0.119-0.02,0.166l18.715,12.481
			c0.066,0.046,0.193,0.053,0.279,0.013l28.461-14.247c0.08-0.04,0.093-0.113,0.02-0.159L219.285,118.367z M167.501,149.862
			c0.1-0.033,0.126-0.106,0.06-0.159v-3.266c0.046-0.033,0.046-0.086,0-0.126l-27.207-22.964c-0.066-0.053-0.193-0.066-0.285-0.027
			l-20.734,9.115c-0.1,0.04-0.106,0.126-0.007,0.179h0.007v3.213c-0.1,0.04-0.106,0.133-0.007,0.179l37.066,17.773
			c0.066,0.027,0.159,0.033,0.232,0.007L167.501,149.862z"/>
		<polygon class="st3" points="310.977,227.227 310.811,230.526 306.92,228.276 309.855,226.583 		"/>
		<path class="st7" d="M309.888,183.874v0.146c-0.007,0.013-0.02,0.013-0.027,0.02l-2.735,1.328l-27.585-18.988
			c-0.066-0.046-0.193-0.053-0.279-0.013l0.279-3.379L309.888,183.874z"/>
		<path class="st6" d="M309.888,184.02l-0.027,3.227l-2.735-1.879l2.735-1.328C309.868,184.033,309.881,184.033,309.888,184.02z"/>
		<path class="st6" d="M309.861,187.246v0.186l-20.282,9.839c-0.08,0.04-0.206,0.033-0.279-0.013l0.279-3.379l17.547-8.511
			L309.861,187.246z"/>
		<polygon class="st3" points="306.92,224.883 309.855,226.583 306.92,228.276 		"/>
		<path class="st7" d="M308.759,0.285c0.08-0.046,0.199-0.046,0.279,0l-0.279,3.393l-36.395,21.006l-2.934-1.693L308.759,0.285z"/>
		<polygon class="st6" points="306.92,224.883 306.92,228.276 306.914,228.276 306.914,224.89 306.914,224.883 		"/>
		<polygon class="st9" points="306.914,228.276 303.395,230.307 300.461,228.614 306.914,224.89 		"/>
		<polygon class="st3" points="304.517,230.958 304.358,234.257 300.461,232.007 303.395,230.307 		"/>
		<polygon class="st3" points="303.395,230.307 300.461,232.007 300.461,228.614 		"/>
		<polygon class="st6" points="300.461,228.614 300.461,232.007 298.92,232.896 295.979,231.197 		"/>
		<polygon class="st3" points="300.102,233.58 299.876,236.84 295.979,234.589 298.92,232.896 		"/>
		<path class="st7" d="M299.385,103.143c0.08-0.04,0.206-0.04,0.279,0l34.696,20.037l-9.368,4.382l-16.405,7.668l-12.594,5.889
			c-0.08,0.04-0.193,0.033-0.266-0.007l-77.338-44.647l28.063-16.199c0.08-0.046,0.199-0.046,0.279,0l46.002,26.556
			c0.08,0.046,0.206,0.046,0.279,0L299.385,103.143z"/>
		<path class="st7" d="M299.664,103.143c-0.073-0.04-0.199-0.04-0.279,0v-3.393c0.08-0.04,0.206-0.046,0.279,0l37.942,21.909
			l-3.246,1.52L299.664,103.143z"/>
		<polygon class="st3" points="298.92,232.896 295.979,234.589 295.979,231.197 		"/>
		<path class="st6" d="M295.993,144.511c-0.08,0.04-0.193,0.033-0.266-0.007v-3.393c0.073,0.04,0.186,0.046,0.266,0.007
			l12.594-5.889v3.393L295.993,144.511z"/>
		<polygon class="st9" points="295.979,231.197 295.979,234.589 292.514,236.594 289.579,234.895 		"/>
		<path class="st3" d="M295.727,141.112v3.393l-80.133-46.261c-0.073-0.046-0.073-0.12,0-0.166l2.795-1.613L295.727,141.112z"/>
		<polygon class="st3" points="293.815,237.344 293.476,240.538 289.579,238.287 292.514,236.594 		"/>
		<path class="st7" d="M292.733,106.821v-3.393c0.08,0.046,0.206,0.046,0.279,0l6.373-3.678v3.393l-6.373,3.678
			C292.939,106.868,292.812,106.868,292.733,106.821z"/>
		<path class="st7" d="M292.733,103.429v3.393l-46.002-26.556c-0.08-0.046-0.199-0.046-0.279,0l0.279-3.393L292.733,103.429z"/>
		<polygon class="st3" points="289.579,234.895 292.514,236.594 289.579,238.287 		"/>
		<path class="st7" d="M290.894,54.605c0.08-0.04,0.206-0.04,0.279,0l84.946,49.049l-7.668,3.578l-84.588-48.571L290.894,54.605z"/>
		<path class="st7" d="M291.173,54.605c-0.073-0.04-0.199-0.04-0.279,0v-3.393c0.08-0.04,0.206-0.04,0.279,0l88.033,50.828v0.159
			c0,0.007-0.007,0.007-0.013,0.013l-3.074,1.441L291.173,54.605z"/>
		<polygon class="st7" points="290.894,51.213 290.894,54.605 283.863,58.662 281.061,57.055 281.061,56.889 		"/>
		<path class="st3" d="M289.579,193.879l-0.279,3.379l-30.34-20.886c-0.073-0.046-0.06-0.12,0.02-0.159l2.742-1.334l27.578,18.988
			C289.373,193.912,289.5,193.919,289.579,193.879z"/>
		<path class="st7" d="M289.579,193.879c-0.08,0.04-0.206,0.033-0.279-0.013l-27.578-18.988l17.54-8.511
			c0.086-0.04,0.212-0.033,0.279,0.013l27.585,18.988L289.579,193.879z"/>
		<polygon class="st3" points="283.863,58.662 281.061,60.282 281.061,57.055 		"/>
		<path class="st7" d="M279.262,162.974c0.086-0.04,0.212-0.033,0.279,0.013l-0.279,3.379l-17.54,8.511l-2.742-1.885v-0.173
			L279.262,162.974z"/>
		<polygon class="st6" points="278.99,44.341 278.99,47.575 276.188,45.961 		"/>
		<polygon class="st7" points="278.99,44.182 278.99,44.341 276.188,45.961 272.198,43.651 275.133,41.951 		"/>
		<path class="st7" d="M272.198,43.651l3.99,2.31l-7.024,4.056c-0.08,0.046-0.206,0.046-0.285,0L248.683,38.36l7.177-4.143
			l6.506,3.758l-1.427,0.823l9.832,5.676L272.198,43.651z"/>
		<polygon class="st8" points="275.133,41.951 272.198,43.651 262.366,37.975 265.168,36.361 265.241,36.242 		"/>
		<path class="st6" d="M272.072,248.206v-3.393c0.073,0.053,0.219,0.06,0.305,0.013l17.202-9.932v3.393l-17.202,9.932
			C272.291,248.266,272.145,248.259,272.072,248.206z"/>
		<polygon class="st3" points="272.364,24.683 269.43,26.383 269.43,22.99 		"/>
		<polygon class="st8" points="272.198,43.651 270.771,44.474 260.939,38.798 262.366,37.975 		"/>
		<path class="st3" d="M268.879,50.018l3.114,1.759l-2.828,1.633c-0.08,0.046-0.206,0.046-0.285,0V50.018z"/>
		<path class="st7" d="M271.428,154.058l-3.605,1.779l-0.027-0.02l-0.219-0.153l-4.88-3.366l-0.053,0.027l-34.304-23.25
			c-0.093-0.06-0.259-0.066-0.372-0.013l-25.647,12.641l-3.592-2.43l-0.027-0.02c-0.1-0.073-0.08-0.166,0.027-0.219l29.238-14.413
			c0.113-0.053,0.279-0.046,0.372,0.013l43.114,29.212C271.554,153.912,271.534,154.005,271.428,154.058z"/>
		<polygon class="st6" points="271.428,158.274 271.428,158.499 267.81,160.285 267.797,160.259 267.797,155.85 267.823,155.837 		
			"/>
		<polygon class="st6" points="271.428,154.058 271.428,158.274 267.823,155.837 		"/>
		<polygon class="st6" points="269.43,22.99 269.43,26.383 258.794,32.517 255.86,30.824 		"/>
		<path class="st6" d="M271.992,51.777l-3.114-1.759c0.08,0.046,0.206,0.046,0.285,0l7.024-4.056l2.802,1.613
			c0.08,0.046,0.08,0.12,0,0.159L271.992,51.777z"/>
		<path class="st3" d="M281.061,60.282l-12.183-6.871c0.08,0.046,0.206,0.046,0.285,0l2.828-1.633l9.069,5.112
			c-0.08,0.046-0.08,0.12,0,0.166V60.282z"/>
		<path class="st3" d="M268.879,50.018v3.393l-22.991-13.271c-0.08-0.046-0.08-0.12,0-0.166l2.795-1.613L268.879,50.018z"/>
		<polygon class="st7" points="267.797,155.817 267.823,155.837 267.797,155.85 		"/>
		<polygon class="st8" points="267.797,160.259 267.81,160.285 247.136,170.476 247.109,166.048 267.797,155.85 		"/>
		<polygon class="st8" points="267.797,155.817 267.797,155.85 247.109,166.048 241.818,162.456 262.645,152.325 267.578,155.665 		
			"/>
		<polygon class="st7" points="267.578,155.665 262.645,152.325 262.698,152.299 		"/>
		<polygon class="st7" points="265.241,36.242 265.168,36.361 262.366,37.975 255.86,34.217 258.794,32.517 		"/>
		<path class="st7" d="M228.341,129.075l34.304,23.25l-20.827,10.131l5.291,3.592l-4.92,2.423c-0.113,0.06-0.279,0.053-0.372-0.007
			l-39.496-26.762l25.647-12.641C228.082,129.009,228.248,129.015,228.341,129.075z"/>
		<polygon class="st6" points="262.127,219.592 262.127,222.825 259.325,221.212 		"/>
		<path class="st7" d="M262.127,219.432v0.159l-2.802,1.62l-30.241-17.461c-0.08-0.046-0.206-0.046-0.279,0l0.279-3.393
			L262.127,219.432z"/>
		<polygon class="st3" points="261.722,174.878 258.98,176.212 258.98,172.992 		"/>
		<polygon class="st7" points="258.794,32.517 255.86,34.217 255.86,30.824 		"/>
		<polygon class="st7" points="255.86,30.824 255.86,34.217 248.683,38.36 245.888,36.746 245.888,36.58 		"/>
		<path class="st6" d="M262.127,222.825c0.073,0.046,0.073,0.12,0,0.159l-9.925,5.729l-2.31-1.872
			c-0.027-0.027-0.086-0.04-0.139-0.046l0.007-0.06l9.567-5.524L262.127,222.825z"/>
		<path class="st3" d="M249.758,230.128l2.443-1.414l19.871,16.1v3.393l-22.181-17.972c-0.027-0.027-0.086-0.04-0.139-0.046
			L249.758,230.128z"/>
		<polygon class="st3" points="248.683,38.36 245.888,39.973 245.888,36.746 		"/>
		<path class="st7" d="M246.731,76.873l-0.279,3.393l-3.007-1.653l3.007-1.739C246.532,76.826,246.651,76.826,246.731,76.873z"/>
		<path class="st3" d="M246.452,76.873l-3.007,1.739l-8.365-4.607c0.073-0.04,0.073-0.113,0-0.159v-3.233
			c0.073-0.04,0.073-0.113,0-0.159l11.651,6.42C246.651,76.826,246.532,76.826,246.452,76.873z"/>
		<polygon class="st7" points="246.452,80.265 218.389,96.464 215.594,94.851 215.594,94.685 243.445,78.612 		"/>
		<path class="st6" d="M241.818,172.906v-4.441c0.093,0.06,0.259,0.066,0.372,0.007l4.92-2.423l0.027,4.428l-4.946,2.437
			C242.077,172.972,241.911,172.966,241.818,172.906z"/>
		<path class="st3" d="M241.818,168.465v4.441l-43.114-29.212c-0.1-0.073-0.08-0.166,0.027-0.219l3.592-1.773L241.818,168.465z"/>
		<path class="st7" d="M239.255,232.797c-0.08,0.046-0.206,0.046-0.285,0l-30.234-17.461l13.172-7.608
			c0.04-0.02,0.06-0.053,0.06-0.086l0.06,0.02l6.778-3.91c0.073-0.046,0.199-0.046,0.279,0l30.241,17.461l-9.567,5.524l-0.007,0.06
			c-0.053,0-0.113,0.007-0.159,0.033L239.255,232.797z"/>
		<path class="st3" d="M238.97,236.189l-33.036-19.074c-0.08-0.046-0.08-0.119,0-0.159l2.802-1.62l30.234,17.461l0.285,3.393
			C239.176,236.236,239.05,236.236,238.97,236.189z"/>
		<path class="st6" d="M238.97,232.797c0.08,0.046,0.206,0.046,0.285,0l10.337-5.968c0.046-0.027,0.106-0.033,0.159-0.033
			c0.053,0.007,0.113,0.02,0.139,0.046l2.31,1.872l-2.443,1.414l-0.007,0.06c-0.053,0-0.113,0.007-0.159,0.033l-10.337,5.968
			L238.97,232.797z"/>
		<polygon class="st6" points="235.08,70.612 235.08,73.845 232.278,72.232 		"/>
		<path class="st7" d="M235.08,70.453v0.159l-2.802,1.62l-25.746-14.865c-0.08-0.046-0.206-0.046-0.279,0l0.279-3.399L235.08,70.453
			z"/>
		<path class="st7" d="M206.532,57.367l25.746,14.865l-28.057,16.199c-0.073,0.04-0.199,0.04-0.279,0l-20.535-11.857l-5.212-3.007
			l28.057-16.199C206.326,57.321,206.452,57.321,206.532,57.367z"/>
		<path class="st7" d="M228.806,200.358c0.073-0.046,0.199-0.046,0.279,0l-0.279,3.393l-6.778,3.91l-0.06-0.02
			c0-0.02-0.013-0.04-0.033-0.06l-2.271-1.952l2.244-1.295c0.04-0.02,0.06-0.053,0.06-0.086l0.06,0.02L228.806,200.358z"/>
		<path class="st3" d="M221.934,204.189c0.02,0.02,0.033,0.04,0.033,0.06c0,0.033-0.02,0.066-0.06,0.086l-2.244,1.295
			l-12.534-10.749v-0.007v-3.386L221.934,204.189z"/>
		<path class="st7" d="M221.934,207.582c0.02,0.02,0.033,0.04,0.033,0.06c0,0.033-0.02,0.066-0.06,0.086l-13.172,7.608l-2.802-1.613
			c-0.08-0.046-0.08-0.12,0-0.159l13.73-7.934L221.934,207.582z"/>
		<polygon class="st6" points="219.285,118.367 219.305,121.6 216.53,119.747 		"/>
		<polygon class="st3" points="218.389,96.464 215.594,98.078 215.594,94.851 		"/>
		<polygon class="st3" points="208.736,215.336 205.934,216.956 205.934,213.723 		"/>
		<polygon class="st9" points="201.599,186.742 207.129,191.489 207.129,194.875 201.599,190.128 		"/>
		<path class="st7" d="M206.253,53.975c0.073-0.046,0.199-0.046,0.279-0.007l-0.279,3.399l-28.057,16.199l-2.934-1.7L206.253,53.975
			z"/>
		<path class="st9" d="M204.221,91.824l30.858-17.819l8.365,4.607l-27.851,16.073c-0.073,0.046-0.073,0.119,0,0.166v3.227
			l-11.651-6.254C204.022,91.864,204.148,91.864,204.221,91.824z"/>
		<path class="st6" d="M203.943,91.824v-3.393c0.08,0.04,0.206,0.04,0.279,0l28.057-16.199l2.802,1.613v0.159l-30.858,17.819
			C204.148,91.864,204.022,91.864,203.943,91.824z"/>
		<polygon class="st3" points="203.943,88.431 203.943,91.824 183.408,79.966 183.408,76.574 		"/>
		<polygon class="st3" points="202.323,141.703 198.731,143.475 198.731,139.273 		"/>
		<polygon class="st6" points="201.599,186.742 201.599,190.128 201.592,190.128 197.642,186.735 201.592,186.735 201.599,186.735 
					"/>
		<polygon class="st3" points="197.496,183.216 201.592,186.735 197.642,186.735 197.496,186.609 		"/>
		<polygon class="st6" points="197.642,186.735 201.592,190.128 196.148,190.128 196.148,186.735 		"/>
		<path class="st7" d="M200.311,109.105v-3.393c0.086-0.04,0.212-0.04,0.279,0.007l18.715,12.488c0.073,0.046,0.06,0.119-0.02,0.159
			l-2.755,1.381l-15.94-10.629C200.523,109.065,200.397,109.065,200.311,109.105z"/>
		<path class="st7" d="M200.59,109.118l15.94,10.629l-25.706,12.866c-0.086,0.04-0.212,0.033-0.279-0.013l-15.94-10.629
			l25.706-12.866C200.397,109.065,200.523,109.065,200.59,109.118z"/>
		<polygon class="st7" points="200.311,105.713 200.311,109.105 174.605,121.971 171.849,120.132 171.849,119.953 		"/>
		<polygon class="st9" points="197.496,183.216 197.496,186.609 192.497,182.32 192.497,178.928 		"/>
		<polygon class="st6" points="192.497,178.928 192.497,182.32 188.547,178.928 		"/>
		<path class="st3" d="M192.497,178.928h-3.95l-12.335-10.583c-0.066-0.06-0.212-0.066-0.305-0.02l0.305-3.373L192.497,178.928z"/>
		<polygon class="st6" points="192.497,182.32 187.046,182.32 187.046,178.928 188.547,178.928 		"/>
		<path class="st6" d="M219.305,121.6c0.073,0.046,0.06,0.119-0.02,0.159l-28.461,14.247c-0.086,0.04-0.212,0.033-0.279-0.013
			v-3.393c0.066,0.046,0.193,0.053,0.279,0.013l25.706-12.866L219.305,121.6z"/>
		<path class="st3" d="M190.545,132.601v3.393l-18.715-12.481c-0.073-0.046-0.06-0.119,0.02-0.166l2.755-1.374L190.545,132.601z"/>
		<polygon class="st6" points="189.682,97.434 189.682,100.667 186.88,99.047 		"/>
		<polygon class="st7" points="189.682,97.274 189.682,97.434 186.88,99.047 168.537,88.458 171.491,86.771 		"/>
		<path class="st7" d="M186.88,99.047l-29.497,17.036c-0.08,0.046-0.206,0.046-0.279,0l-26.277-15.17l29.643-17.115l8.066,4.661
			L186.88,99.047z"/>
		<polygon class="st6" points="183.408,76.574 183.408,79.966 180.454,78.26 		"/>
		<polygon class="st7" points="183.408,76.574 180.454,78.26 175.262,75.259 178.196,73.566 		"/>
		<polygon class="st6" points="183.408,79.966 171.491,86.771 168.537,85.065 180.454,78.26 		"/>
		<polygon class="st7" points="180.454,78.26 168.537,85.065 163.411,82.104 175.255,75.259 175.262,75.259 		"/>
		<polygon class="st7" points="178.196,73.566 175.262,75.259 175.255,75.259 175.255,71.873 175.262,71.867 		"/>
		<path class="st6" d="M175.906,164.933c0.093-0.046,0.239-0.04,0.305,0.02l-0.305,3.373l-11.804,6.818l-2.941-1.7l2.941-1.693
			L175.906,164.933z"/>
		<polygon class="st7" points="175.255,75.259 163.411,82.104 160.47,80.405 175.255,71.873 		"/>
		<polygon class="st3" points="171.849,120.132 174.605,121.971 171.849,123.346 		"/>
		<polygon class="st7" points="168.537,85.065 171.491,86.771 168.537,88.458 		"/>
		<polygon class="st7" points="168.537,85.065 168.537,88.458 160.47,83.797 163.411,82.104 		"/>
		<path class="st6" d="M167.561,149.703c0.066,0.053,0.04,0.126-0.06,0.159l-10.875,3.924c-0.073,0.027-0.166,0.02-0.232-0.007
			l0.232-3.386l8.232-2.968L167.561,149.703z"/>
		<path class="st6" d="M167.561,146.436v3.266l-2.702-2.277l2.642-0.956C167.527,146.463,167.547,146.45,167.561,146.436z"/>
		<path class="st7" d="M167.561,146.31v0.126c-0.013,0.013-0.033,0.027-0.06,0.033l-2.642,0.956l-24.505-20.687
			c-0.066-0.053-0.193-0.066-0.285-0.027l-17.242,7.582l-3.492-1.68v-0.179l20.734-9.115c0.093-0.04,0.219-0.027,0.285,0.027
			L167.561,146.31z"/>
		<path class="st7" d="M164.102,171.751l-2.941,1.693l-64.352-37.152c-0.08-0.046-0.08-0.12,0-0.166l2.802-1.613L164.102,171.751z"
			/>
		<polygon class="st7" points="163.411,82.104 160.47,83.797 130.827,100.913 127.893,99.22 160.47,80.405 		"/>
		<path class="st7" d="M161.161,173.444l-35.24,20.349c-0.073,0.046-0.199,0.046-0.279,0l-77.843-44.94l25.799-14.898l42.31-24.432
			l10.549,6.095l-29.65,17.115c-0.08,0.046-0.08,0.119,0,0.159v3.233c-0.08,0.046-0.08,0.12,0,0.166L161.161,173.444z"/>
		<path class="st6" d="M157.104,119.475v-3.393c0.073,0.046,0.199,0.046,0.279,0l29.497-17.036l2.802,1.62v0.159l-32.299,18.649
			C157.303,119.522,157.177,119.522,157.104,119.475z"/>
		<polygon class="st3" points="157.104,116.083 157.104,119.475 127.893,102.612 130.827,100.913 		"/>
		<path class="st3" d="M156.626,150.393l-0.232,3.386l-37.066-17.773c-0.1-0.046-0.093-0.139,0.007-0.179l3.492-1.534l33.567,16.093
			C156.46,150.413,156.553,150.42,156.626,150.393z"/>
		<path class="st7" d="M156.394,150.387l-33.567-16.093l17.242-7.582c0.093-0.04,0.219-0.027,0.285,0.027l24.505,20.687
			l-8.232,2.968C156.553,150.42,156.46,150.413,156.394,150.387z"/>
		<polygon class="st3" points="127.893,99.22 130.827,100.913 127.893,102.612 127.886,102.605 127.886,99.22 		"/>
		<path class="st6" d="M129.26,117.231v0.159l-29.65,17.122l-2.802-1.62c-0.08-0.04-0.08-0.113,0-0.159l29.65-17.115L129.26,117.231
			z"/>
		<polygon class="st6" points="129.26,113.998 129.26,117.231 126.458,115.618 		"/>
		<path class="st7" d="M129.26,113.998l-2.802,1.62l-10.549-6.095l2.941-1.693l10.41,6.008
			C129.333,113.879,129.333,113.952,129.26,113.998z"/>
		<polygon class="st6" points="127.886,102.605 127.893,102.612 125.383,104.053 125.542,100.76 125.383,100.667 125.383,100.66 
			127.886,99.22 		"/>
		<path class="st6" d="M125.642,197.185v-3.393c0.08,0.046,0.206,0.046,0.279,0l35.24-20.349l2.941,1.7l-38.181,22.042
			C125.848,197.231,125.722,197.231,125.642,197.185z"/>
		<path class="st3" d="M125.642,193.792v3.393l-80.644-46.559c-0.08-0.046-0.08-0.12,0-0.159l2.802-1.613L125.642,193.792z"/>
		<polygon class="st6" points="125.542,100.76 125.383,104.053 125.383,100.667 		"/>
		<polygon class="st3" points="125.383,100.667 125.383,104.053 122.442,102.36 		"/>
		<polygon class="st3" points="125.383,100.667 122.442,102.36 121.486,101.809 121.486,98.416 		"/>
		<polygon class="st3" points="119.335,132.614 122.827,134.294 119.335,135.827 		"/>
		<polygon class="st6" points="119.76,103.913 119.866,106.509 119.826,107.259 116.892,105.566 		"/>
		<polygon class="st3" points="115.929,101.623 119.826,103.874 119.76,103.907 119.76,103.913 116.892,105.566 115.929,105.015 		
			"/>
		<polygon class="st6" points="119.892,107.226 118.85,107.83 115.909,106.131 116.892,105.566 119.826,107.259 119.866,106.509 		
			"/>
		<polygon class="st7" points="115.909,106.131 118.85,107.83 115.909,109.523 73.599,133.955 47.799,148.853 44.998,147.233 
			44.998,147.074 73.599,130.562 		"/>
		<polygon class="st7" points="96.809,132.893 99.61,134.513 96.809,136.126 		"/>
		<polygon class="st3" points="44.998,147.233 47.799,148.853 44.998,150.466 		"/>
	</g>
	<g>
	</g>
</g>
<path class="st10" d="M297.854,87.749l-0.873,0.239c-0.587,0.161-1.199-0.188-1.36-0.775l-5.991-21.853
	c-0.161-0.587,0.188-1.199,0.775-1.36l0.873-0.239c0.587-0.161,1.199,0.188,1.36,0.775l5.991,21.853
	C298.789,86.976,298.441,87.588,297.854,87.749z"/>
<path class="st10" d="M279.647,84.824l-0.524-0.738c-0.352-0.496-0.234-1.191,0.262-1.543l27.862-19.772
	c0.496-0.352,1.191-0.234,1.543,0.262l0.524,0.738c0.352,0.497,0.234,1.191-0.262,1.543L281.19,85.086
	C280.693,85.439,279.999,85.321,279.647,84.824z"/>
<path class="st10" d="M304.413,84.113l-0.628,0.651c-0.423,0.438-1.127,0.451-1.565,0.029l-21.669-20.886
	c-0.438-0.423-0.451-1.127-0.029-1.565l0.628-0.651c0.423-0.438,1.127-0.451,1.565-0.029l21.669,20.886
	C304.823,82.971,304.836,83.675,304.413,84.113z"/>
<circle class="st10" cx="291.083" cy="64.815" r="1.703"/>
<circle class="st10" cx="280.173" cy="84.084" r="1.887"/>
<ellipse class="st10" cx="297.206" cy="86.581" rx="2.188" ry="2.21"/>
<ellipse class="st10" cx="303.357" cy="83.794" rx="1.875" ry="1.894"/>
<ellipse class="st10" cx="308.528" cy="63.597" rx="1.952" ry="1.972"/>
<ellipse class="st10" cx="281.689" cy="62.843" rx="1.952" ry="1.972"/>
<g id="XMLID_4_">
	<g>
		<polygon class="st6" points="289.881,191.446 288.187,190.263 290.055,189.388 289.895,191.283 289.89,191.447 		"/>
		<polygon class="st11" points="288.187,190.263 285.62,191.473 260.507,174.018 263.074,172.809 		"/>
		<polygon class="st6" points="289.881,191.446 285.447,193.531 285.62,191.473 288.187,190.263 		"/>
		<polygon class="st3" points="285.447,193.531 258.639,174.893 260.507,174.018 285.62,191.473 		"/>
		<polygon class="st6" points="285.447,193.531 285.274,195.588 283.578,194.414 		"/>
		<polygon class="st11" points="258.466,176.951 283.578,194.414 281.003,195.622 255.891,178.16 		"/>
		<polygon class="st6" points="285.274,195.588 280.856,197.666 280.832,197.656 281.003,195.622 283.578,194.414 		"/>
		<polygon class="st6" points="280.856,197.666 280.83,197.68 280.832,197.656 		"/>
		<polygon class="st6" points="278.987,198.557 280.863,197.675 280.689,199.741 		"/>
		<polygon class="st11" points="280.83,197.68 254.054,179.062 254.056,179.038 280.832,197.656 		"/>
		<polygon class="st11" points="278.987,198.557 276.428,199.767 251.315,182.313 253.882,181.104 		"/>
		<polygon class="st6" points="280.863,197.675 280.856,197.666 285.274,195.588 285.447,193.531 289.881,191.446 289.89,191.447 
			289.682,197.229 276.082,203.883 276.255,201.825 280.689,199.741 		"/>
		<polygon class="st6" points="276.428,199.767 278.987,198.557 280.689,199.741 276.255,201.825 		"/>
		<polygon class="st6" points="276.255,201.825 276.082,203.883 274.387,202.7 		"/>
		<polygon class="st3" points="276.255,201.825 249.447,183.188 251.315,182.313 276.428,199.767 		"/>
		<polygon class="st11" points="274.387,202.7 271.82,203.91 246.707,186.455 249.274,185.246 		"/>
		<polygon class="st6" points="276.082,203.883 271.647,205.968 271.82,203.91 274.387,202.7 		"/>
		<polygon class="st3" points="271.647,205.968 244.839,187.33 246.707,186.455 271.82,203.91 		"/>
		<polygon class="st11" points="263.247,170.751 290.055,189.388 288.187,190.263 263.074,172.809 		"/>
		<polygon class="st11" points="263.247,170.751 263.074,172.809 260.507,174.018 258.812,172.835 		"/>
		<polygon class="st11" points="258.639,174.893 285.447,193.531 283.578,194.414 258.466,176.951 		"/>
		<polygon class="st3" points="258.812,172.835 260.507,174.018 258.639,174.893 		"/>
		<polygon class="st11" points="258.466,176.951 255.891,178.16 254.196,176.985 258.639,174.893 		"/>
		<polygon class="st11" points="280.83,197.68 280.856,197.666 280.863,197.675 278.987,198.557 253.882,181.104 254.054,179.062 		
			"/>
		<polygon class="st11" points="254.056,179.038 254.054,179.062 254.03,179.052 		"/>
		<polygon class="st3" points="280.832,197.656 254.056,179.038 254.03,179.052 254.023,179.043 255.891,178.16 281.003,195.622 		
			"/>
		<polygon class="st3" points="254.196,176.985 255.891,178.16 254.023,179.043 		"/>
		<polygon class="st11" points="249.62,181.13 254.03,179.052 254.054,179.062 253.882,181.104 251.315,182.313 		"/>
		<polygon class="st11" points="249.274,185.246 249.447,183.188 276.255,201.825 274.387,202.7 		"/>
		<polygon class="st3" points="249.62,181.13 251.315,182.313 249.447,183.188 		"/>
		<polygon class="st11" points="249.274,185.246 246.707,186.455 245.012,185.272 249.447,183.188 		"/>
		<polygon class="st3" points="245.012,185.272 246.707,186.455 244.839,187.33 		"/>
	</g>
	<g>
	</g>
</g>
<circle class="st12" cx="390.289" cy="218.496" r="3.294"/>
<circle class="st12" cx="279.985" cy="135.089" r="3.294"/>
<circle class="st12" cx="284.55" cy="168.719" r="3.294"/>
<circle class="st12" cx="301.509" cy="180.951" r="3.294"/>
<circle class="st12" cx="296.129" cy="190.351" r="3.294"/>
<circle class="st12" cx="266.67" cy="168.719" r="3.294"/>
<circle class="st12" cx="152.812" cy="167.042" r="3.294"/>
<circle class="st12" cx="162.045" cy="148.512" r="3.294"/>
<circle class="st12" cx="108.253" cy="140.794" r="3.294"/>
<circle class="st12" cx="138.712" cy="108.137" r="3.294"/>
<circle class="st12" cx="123.34" cy="113.264" r="3.294"/>
<circle class="st12" cx="339.098" cy="205.685" r="3.294"/>
<circle class="st12" cx="396.877" cy="82.054" r="3.294"/>
<g>
	<path class="st8" d="M266.349,29.827l5.061-2.922c0.219-0.126,0.419-0.382,0.519-0.663c0.1-0.281,0.084-0.54-0.043-0.671
		l-2.311-2.391c-0.16-0.166-0.419-0.17-0.696-0.01s-0.535,0.463-0.696,0.813l-2.31,5.059c-0.127,0.278-0.143,0.556-0.043,0.721
		C265.93,29.929,266.131,29.953,266.349,29.827z"/>
	<path class="st8" d="M271.41,28.411l-5.061,2.922c-0.219,0.126-0.419,0.382-0.519,0.663c-0.1,0.281-0.083,0.54,0.043,0.671
		l2.31,2.391c0.16,0.166,0.419,0.17,0.696,0.01c0.276-0.159,0.535-0.463,0.696-0.813l2.31-5.059
		c0.127-0.278,0.143-0.556,0.043-0.721C271.829,28.31,271.628,28.285,271.41,28.411z"/>
</g>
<g>
	<path class="st8" d="M375.324,68.138l5.061-2.922c0.219-0.126,0.419-0.382,0.519-0.663c0.1-0.281,0.084-0.54-0.043-0.671
		l-2.311-2.391c-0.16-0.166-0.419-0.17-0.696-0.01s-0.535,0.463-0.696,0.813l-2.31,5.059c-0.127,0.278-0.143,0.556-0.043,0.721
		C374.905,68.24,375.106,68.264,375.324,68.138z"/>
	<path class="st8" d="M380.385,66.722l-5.061,2.922c-0.219,0.126-0.419,0.382-0.519,0.663c-0.1,0.281-0.083,0.54,0.043,0.671
		l2.31,2.391c0.16,0.166,0.419,0.17,0.696,0.01c0.276-0.159,0.535-0.463,0.696-0.813l2.31-5.059
		c0.127-0.278,0.143-0.556,0.043-0.721C380.804,66.62,380.603,66.596,380.385,66.722z"/>
</g>
<g>
	<path class="st8" d="M248.729,148.925l5.061-2.922c0.219-0.126,0.419-0.382,0.519-0.663c0.1-0.281,0.084-0.54-0.043-0.671
		l-2.311-2.391c-0.16-0.166-0.419-0.17-0.696-0.01c-0.276,0.16-0.535,0.463-0.696,0.813l-2.31,5.059
		c-0.127,0.278-0.143,0.556-0.043,0.721C248.31,149.027,248.511,149.051,248.729,148.925z"/>
	<path class="st8" d="M253.79,147.509l-5.061,2.922c-0.219,0.126-0.419,0.382-0.519,0.663c-0.1,0.281-0.084,0.54,0.043,0.671
		l2.311,2.391c0.16,0.166,0.419,0.17,0.696,0.01c0.276-0.16,0.535-0.463,0.696-0.813l2.311-5.059
		c0.127-0.278,0.143-0.556,0.043-0.721C254.209,147.407,254.008,147.383,253.79,147.509z"/>
</g>
<g>
</g>
<g>
</g>
<g>
</g>
<g>
</g>
<g>
</g>
<g>
</g>
</svg>
